# 3ds Max Wavefront OBJ Exporter v0.97b - (c)2007 guruware
# 创建的文件:10.08.2017 14:13:55

mtllib cube.mtl

#
# object Plane001
#

v  644.5089 -2860.5872 0.0000
v  713.2565 -2668.9839 0.0000
v  644.5089 -2668.9839 0.0000
v  930.0792 -872.7073 0.0000
v  1074.1813 -465.5465 0.0000
v  933.9615 -465.5465 0.0000
v  941.8705 363.9217 0.0000
v  1074.1813 731.9736 0.0000
v  945.3798 731.9736 0.0000
v  953.6614 1600.5513 0.0000
v  1074.1812 1929.4938 0.0000
v  956.7979 1929.4938 0.0000
v  965.4527 2837.1802 0.0000
v  1016.1752 2965.3484 0.0000
v  966.6747 2965.3484 0.0000
v  214.8364 -2860.5872 0.0000
v  283.5840 -2668.9839 0.0000
v  214.8364 -2668.9839 0.0000
v  214.8363 -1663.0668 0.0000
v  644.5087 -465.5465 0.0000
v  214.8363 -465.5465 0.0000
v  644.5087 731.9736 0.0000
v  214.8362 731.9736 0.0000
v  644.5087 1929.4938 0.0000
v  214.8362 1929.4938 0.0000
v  586.5029 2965.3484 0.0000
v  214.8362 2965.3484 0.0000
v  -214.8362 -2860.5872 0.0000
v  -146.0886 -2668.9839 0.0000
v  -214.8362 -2668.9839 0.0000
v  -214.8362 -1663.0668 0.0000
v  -214.8362 -465.5465 0.0000
v  -214.8363 731.9736 0.0000
v  -214.8363 1929.4938 0.0000
v  156.8304 2965.3484 0.0000
v  -214.8364 2965.3484 0.0000
v  -644.5087 -2860.5872 0.0000
v  -575.7610 -2668.9839 0.0000
v  -644.5087 -2668.9839 0.0000
v  -644.5087 -1663.0668 0.0000
v  -644.5087 -465.5465 0.0000
v  -644.5087 731.9736 0.0000
v  -644.5087 1929.4938 0.0000
v  -272.8422 2965.3484 0.0000
v  -644.5089 2965.3484 0.0000
v  -1074.1812 -2860.5872 0.0000
v  -1005.4335 -2668.9839 0.0000
v  -1074.1812 -2668.9839 0.0000
v  -940.9328 -1291.6964 0.0000
v  -939.7568 -465.5466 0.0000
v  -939.2217 -89.4073 0.0000
v  -938.0528 731.9734 0.0000
v  -937.5107 1112.8815 0.0000
v  -936.3485 1929.4938 0.0000
v  -935.7996 2315.1709 0.0000
v  -702.5148 2965.3484 0.0000
v  -934.8743 2965.3484 0.0000
v  -941.4614 -1663.0668 0.0000
v  644.5087 2965.3484 0.0000
v  1074.1812 2965.3484 0.0000
v  922.5431 -1663.0668 0.0000
v  1074.1814 -1663.0668 0.0000
v  1074.1814 -2860.5872 0.0000
v  1074.1814 -2668.9839 0.0000
v  912.9519 -2668.9839 0.0000
v  911.1250 -2860.5872 0.0000
v  644.5087 -1663.0668 0.0000
v  -942.8928 -2668.9839 0.0000
v  -943.1655 -2860.5872 0.0000
v  918.2881 -2109.3369 0.0000
v  -942.6438 -2493.9856 0.0000
v  1074.1812 3127.0139 0.0000
v  968.2162 3127.0142 0.0000
v  214.8362 3127.0139 0.0000
v  644.5087 3127.0139 0.0000
v  -214.8364 3127.0139 0.0000
v  -644.5089 3127.0139 0.0000
v  -934.6442 3127.0139 0.0000
v  -1074.1814 3127.0139 0.0000
v  -1074.1814 2965.3484 0.0000
v  -1074.1814 1929.4938 0.0000
v  -1074.1813 731.9734 0.0000
v  -1074.1813 -465.5466 0.0000
v  -1074.1812 -1663.0668 0.0000
# 84 vertices

vn 0.0000 0.0000 1.0000
# 1 vertex normals

g Plane001
usemtl 01___Default
f 1//1 2//1 3//1 
usemtl Material__36
f 4//1 5//1 6//1 
usemtl 01___Default
f 7//1 8//1 9//1 
usemtl Material__36
f 10//1 11//1 12//1 
usemtl 01___Default
f 13//1 14//1 15//1 
usemtl Material__36
f 16//1 17//1 18//1 
usemtl 01___Default
f 19//1 20//1 21//1 
usemtl Material__36
f 21//1 22//1 23//1 
usemtl 01___Default
f 23//1 24//1 25//1 
usemtl Material__36
f 25//1 26//1 27//1 
usemtl 01___Default
f 28//1 29//1 30//1 
usemtl Material__36
f 31//1 21//1 32//1 
usemtl 01___Default
f 32//1 23//1 33//1 
usemtl Material__36
f 33//1 25//1 34//1 
usemtl 01___Default
f 34//1 35//1 36//1 
usemtl Material__36
f 37//1 38//1 39//1 
usemtl 01___Default
f 40//1 32//1 41//1 
usemtl Material__36
f 41//1 33//1 42//1 
usemtl 01___Default
f 42//1 34//1 43//1 
usemtl Material__36
f 43//1 44//1 45//1 
usemtl 01___Default
f 46//1 47//1 48//1 
usemtl Material__36
f 49//1 41//1 50//1 
usemtl 01___Default
f 51//1 42//1 52//1 
usemtl Material__36
f 53//1 43//1 54//1 
usemtl 01___Default
f 55//1 56//1 57//1 
usemtl Material__36
f 45//1 56//1 55//1 
f 43//1 45//1 55//1 
f 54//1 43//1 55//1 
usemtl 01___Default
f 53//1 52//1 42//1 
f 42//1 43//1 53//1 
f 43//1 34//1 36//1 
f 36//1 44//1 43//1 
usemtl Material__36
f 34//1 25//1 27//1 
f 27//1 35//1 34//1 
f 42//1 33//1 34//1 
f 51//1 50//1 41//1 
f 41//1 42//1 51//1 
usemtl 01___Default
f 49//1 58//1 40//1 
f 40//1 41//1 49//1 
f 41//1 32//1 33//1 
f 33//1 23//1 25//1 
f 25//1 24//1 59//1 
f 59//1 26//1 25//1 
usemtl Material__36
f 11//1 60//1 14//1 
f 11//1 14//1 13//1 
f 12//1 11//1 13//1 
f 23//1 22//1 24//1 
f 32//1 21//1 23//1 
usemtl 01___Default
f 10//1 9//1 8//1 
f 8//1 11//1 10//1 
f 21//1 20//1 22//1 
usemtl Material__36
f 7//1 6//1 5//1 
f 5//1 8//1 7//1 
usemtl 01___Default
f 4//1 61//1 62//1 
f 62//1 5//1 4//1 
usemtl Material__36
f 63//1 64//1 65//1 
f 65//1 66//1 63//1 
f 19//1 67//1 20//1 
usemtl 01___Default
f 16//1 1//1 3//1 
f 3//1 17//1 16//1 
usemtl Material__36
f 28//1 16//1 18//1 
f 18//1 29//1 28//1 
usemtl 01___Default
f 31//1 19//1 21//1 
usemtl Material__36
f 40//1 31//1 32//1 
usemtl 01___Default
f 37//1 28//1 30//1 
f 30//1 38//1 37//1 
usemtl Material__36
f 37//1 39//1 68//1 
f 68//1 69//1 37//1 
usemtl 01___Default
f 70//1 62//1 61//1 
usemtl Material__36
f 19//1 18//1 17//1 
f 17//1 67//1 19//1 
usemtl 01___Default
f 31//1 30//1 29//1 
f 29//1 19//1 31//1 
usemtl Material__36
f 40//1 39//1 38//1 
f 38//1 31//1 40//1 
usemtl 01___Default
f 71//1 40//1 58//1 
usemtl Material__36
f 70//1 65//1 64//1 
f 64//1 62//1 70//1 
usemtl 01___Default
f 3//1 67//1 17//1 
usemtl Material__36
f 18//1 19//1 29//1 
usemtl 01___Default
f 30//1 31//1 38//1 
usemtl Material__36
f 71//1 68//1 39//1 
f 39//1 40//1 71//1 
usemtl 01___Default
f 14//1 72//1 73//1 
f 73//1 15//1 14//1 
usemtl Material__36
f 74//1 27//1 26//1 
f 26//1 75//1 74//1 
usemtl 01___Default
f 76//1 36//1 35//1 
f 35//1 74//1 76//1 
usemtl Material__36
f 77//1 45//1 44//1 
f 44//1 76//1 77//1 
usemtl 01___Default
f 56//1 77//1 78//1 
f 78//1 57//1 56//1 
usemtl Material__36
f 45//1 77//1 56//1 
usemtl 01___Default
f 36//1 76//1 44//1 
usemtl Material__36
f 27//1 74//1 35//1 
usemtl 01___Default
f 59//1 75//1 26//1 
usemtl Material__36
f 60//1 72//1 14//1 
usemtl 01___Default
f 75//1 59//1 15//1 
f 15//1 73//1 75//1 
f 24//1 13//1 15//1 
f 15//1 59//1 24//1 
usemtl Material__36
f 13//1 24//1 12//1 
f 22//1 10//1 12//1 
f 12//1 24//1 22//1 
usemtl 01___Default
f 10//1 22//1 9//1 
f 20//1 7//1 9//1 
f 9//1 22//1 20//1 
usemtl Material__36
f 7//1 20//1 6//1 
f 67//1 4//1 6//1 
f 6//1 20//1 67//1 
usemtl 01___Default
f 4//1 67//1 61//1 
f 67//1 3//1 2//1 
f 61//1 67//1 2//1 
f 61//1 2//1 70//1 
usemtl Material__36
f 70//1 2//1 65//1 
f 2//1 1//1 66//1 
f 66//1 65//1 2//1 
usemtl 01___Default
f 79//1 80//1 57//1 
f 57//1 78//1 79//1 
f 81//1 55//1 57//1 
f 57//1 80//1 81//1 
usemtl Material__36
f 55//1 81//1 54//1 
f 82//1 53//1 54//1 
f 54//1 81//1 82//1 
usemtl 01___Default
f 53//1 82//1 52//1 
f 83//1 51//1 52//1 
f 52//1 82//1 83//1 
usemtl Material__36
f 51//1 83//1 50//1 
f 84//1 49//1 50//1 
f 50//1 83//1 84//1 
usemtl 01___Default
f 49//1 84//1 58//1 
f 84//1 48//1 47//1 
f 58//1 84//1 47//1 
f 58//1 47//1 71//1 
usemtl Material__36
f 71//1 47//1 68//1 
f 47//1 46//1 69//1 
f 69//1 68//1 47//1 
# 138 faces

